<svg fill="none" height="34" viewBox="0 0 34 34" width="34" xmlns="http://www.w3.org/2000/svg" xmlns:xlink="http://www.w3.org/1999/xlink"><clipPath id="a"><path d="m0 0h34v34h-34z"/></clipPath><g clip-path="url(#a)" fill="#fff"><path d="m10.9608 22.0306c.0381-.1821.0401-.37.0056-.5529-.0344-.1829-.1046-.3572-.2064-.5129-.1018-.1558-.2333-.29-.387-.3949s-.3266-.1785-.50875-.2166c-1.38985-.298-2.68618-.9301-3.77683-1.8417l.51425-2.5741h.43775c.32293 0 .64161-.0736.93183-.2153.29021-.1416.54432-.3476.74303-.6021.19871-.2546.33678-.5511.40373-.867.06696-.3159.06102-.643-.01734-.9562l-.70834-2.8334c-.11498-.4596-.38028-.86767-.75375-1.15926s-.83368-.44999-1.3075-.45004h-3.02458c.44434-1.32546 1.19717-2.52642 2.19652-3.50396.99934-.97755 2.2166-1.70373 3.55153-2.11873 1.33495-.41501 2.74935-.50697 4.12675-.26832 1.3775.23865 2.6785.80109 3.796 1.64101h-.6417c-.4738.00005-.934.15845-1.3075.45004s-.6388.69963-.7538 1.15929l-.7083 2.83333c-.0784.31329-.0843.64031-.0173.95624.0669.3159.205.6124.4037.867.1987.2545.4528.4605.743.6021.2902.1417.6089.2153.9319.2153h.891l.3585 2.1519c.1202.6995.3935 1.3637.8004 1.9451.0489.0707.1219.1212.2053.1421.0834.0208.1716.0106.248-.0287l.0425-.0213c.5462-.281 1.1559-.4156 1.7697-.3908.6137.0248 1.2106.2083 1.7323.5325.085.0537.1809.0876.2807.0994.0998.0117.201.001.2961-.0315s.1818-.0859.2536-.1562c.0717-.0703.1269-.1559.1613-.2503.5826-1.6034.8071-3.3148.6577-5.0142s-.6691-3.34546-1.5226-4.82255c-.8534-1.47708-2.02-2.74937-3.4177-3.72748-1.3977-.9781-2.9926-1.638296-4.6727-1.9342-1.68-.295904-3.4045-.2203385-5.05229.221387-1.64776.441726-3.17881 1.238893-4.48559 2.335513-1.30677 1.09661-2.35758 2.46606-3.07859 4.01214-.721014 1.54608-1.0947419 3.23128-1.09493 4.93719.00773667 2.6803.933145 5.2771 2.6222 7.3582 1.68906 2.0811 4.03989 3.521 6.66122 4.08.36764.0771.75088.0051 1.06538-.2002.3146-.2054.5347-.5273.612-.8949z"/><path d="m33.7761 20.3858c-.2671-.5915-.7521-1.0573-1.354-1.3003-.6019-.2431-1.2743-.2446-1.8774-.0044l-4.675 1.8629c-.1033.0411-.2149.0572-.3257.0471-.1107-.0101-.2175-.0461-.3118-.1052l-4.3336-2.7129c-.2082-.1302-.4467-.204-.6921-.2141-.2454-.0102-.4892.0436-.7075.156l-1.4549.7494c-.2192.1133-.405.2817-.539.4888-.1341.207-.2118.4455-.2254.6918-.0135.2463.0374.4919.1478.7124.1105.2206.2766.4085.482.5451l2.0867 1.3884c.0537.0358.0965.0856.1239.144s.0384.1231.0317.1873-.0309.1253-.0697.1767c-.0389.0515-.0911.0913-.151.1153l-3.043 1.2155c-.0882.0352-.1825.0524-.2774.0504-.0949-.0019-.1885-.0229-.2751-.0617l-2.8773-1.285c-.2043-.0905-.427-.1318-.6502-.1204-.2232.0113-.4406.0749-.6347.1856l-1.5201.8741c-.2105.1212-.3863.2945-.5105.5033-.1242.2087-.19269.4459-.19881.6887-.00612.2429.05031.4832.16391.6979.1135.2148.2804.3967.4845.5283l5.1807 3.3462c.1889.1213.4039.196.6273.2179.2234.022.4488-.0095.6577-.0918l3.8476-1.5158c.064-.0252.1338-.0312.2011-.0173.0673.0138.1291.0469.1778.0953.0488.0483.0825.1098.097.1769.0145.0672.0091.1371-.0155.2012l-1.1857 3.0784c-.0811.2143-.109.4451-.0814.6726.0277.2274.1101.4448.2402.6334s.304.3428.5068.4494c.2028.1067.4284.1625.6576.1628.2264.0008.4496-.0536.6502-.1587l1.3657-.7083c.2517-.1283.4586-.3298.5936-.578l3.5898-6.5592c.0748-.1371.1928-.2457.3357-.3088l4.4569-1.9621c.3042-.1341.5788-.3271.8081-.5678.2293-.2408.4086-.5246.5276-.835.1191-.3104.1755-.6413.1661-.9736-.0095-.3324-.0846-.6595-.2212-.9627z"/></g></svg>