<svg width="34" height="34" viewBox="0 0 34 34" fill="none" xmlns="http://www.w3.org/2000/svg">
<g clip-path="url(#clip0_57_136)">
<path d="M10.9608 22.0306C10.9989 21.8485 11.0009 21.6606 10.9664 21.4777C10.932 21.2948 10.8618 21.1205 10.76 20.9648C10.6582 20.809 10.5267 20.6748 10.373 20.5699C10.2193 20.465 10.0464 20.3914 9.86425 20.3533C8.4744 20.0553 7.17807 19.4232 6.08742 18.5116L6.60167 15.9375H7.03942C7.36235 15.9375 7.68103 15.8639 7.97125 15.7222C8.26146 15.5806 8.51557 15.3746 8.71428 15.1201C8.91299 14.8655 9.05106 14.569 9.11801 14.2531C9.18497 13.9372 9.17903 13.6101 9.10067 13.2969L8.39233 10.4635C8.27735 10.0039 8.01205 9.59583 7.63858 9.30424C7.26511 9.01265 6.8049 8.85425 6.33108 8.8542H3.3065C3.75084 7.52874 4.50367 6.32778 5.50302 5.35024C6.50236 4.37269 7.71962 3.64651 9.05455 3.23151C10.3895 2.8165 11.8039 2.72454 13.1813 2.96319C14.5588 3.20184 15.8598 3.76428 16.9773 4.6042H16.3356C15.8618 4.60425 15.4016 4.76265 15.0281 5.05424C14.6546 5.34583 14.3893 5.75387 14.2743 6.21353L13.566 9.04686C13.4876 9.36015 13.4817 9.68717 13.5487 10.0031C13.6156 10.319 13.7537 10.6155 13.9524 10.8701C14.1511 11.1246 14.4052 11.3306 14.6954 11.4722C14.9856 11.6139 15.3043 11.6875 15.6273 11.6875H16.5183L16.8768 13.8394C16.997 14.5389 17.2703 15.2031 17.6772 15.7845C17.7261 15.8552 17.7991 15.9057 17.8825 15.9266C17.9659 15.9474 18.0541 15.9372 18.1305 15.8979L18.173 15.8766C18.7192 15.5956 19.3289 15.461 19.9427 15.4858C20.5564 15.5106 21.1533 15.6941 21.675 16.0183C21.76 16.072 21.8559 16.1059 21.9557 16.1177C22.0555 16.1294 22.1567 16.1187 22.2518 16.0862C22.3469 16.0537 22.4336 16.0003 22.5054 15.93C22.5771 15.8597 22.6323 15.7741 22.6667 15.6797C23.2493 14.0763 23.4738 12.3649 23.3244 10.6655C23.175 8.9661 22.6553 7.32004 21.8018 5.84295C20.9484 4.36587 19.7818 3.09358 18.3841 2.11547C16.9864 1.13737 15.3915 0.477174 13.7114 0.18127C12.0314 -0.114634 10.3069 -0.0390685 8.65911 0.402657C7.01135 0.844383 5.4803 1.64155 4.17352 2.73817C2.86675 3.83478 1.81594 5.20423 1.09493 6.75031C0.373916 8.29639 0.0001881 9.98159 0 11.6875C0.00773667 14.3678 0.933145 16.9646 2.6222 19.0457C4.31126 21.1268 6.66209 22.5667 9.28342 23.1257C9.65106 23.2028 10.0343 23.1308 10.3488 22.9255C10.6634 22.7201 10.8835 22.3982 10.9608 22.0306Z" fill="white"/>
<path d="M33.7761 20.3858C33.509 19.7943 33.024 19.3285 32.4221 19.0855C31.8202 18.8424 31.1478 18.8409 30.5447 19.0811L25.8697 20.944C25.7664 20.9851 25.6548 21.0012 25.544 20.9911C25.4333 20.981 25.3265 20.945 25.2322 20.8859L20.8986 18.173C20.6904 18.0428 20.4519 17.969 20.2065 17.9589C19.9611 17.9487 19.7173 18.0025 19.499 18.1149L18.0441 18.8643C17.8249 18.9776 17.6391 19.146 17.5051 19.3531C17.371 19.5601 17.2933 19.7986 17.2797 20.0449C17.2662 20.2912 17.3171 20.5368 17.4275 20.7573C17.538 20.9779 17.7041 21.1658 17.9095 21.3024L19.9962 22.6908C20.0499 22.7266 20.0927 22.7764 20.1201 22.8348C20.1475 22.8932 20.1585 22.9579 20.1518 23.0221C20.1451 23.0863 20.1209 23.1474 20.0821 23.1988C20.0432 23.2503 19.991 23.2901 19.9311 23.3141L16.8881 24.5296C16.7999 24.5648 16.7056 24.582 16.6107 24.58C16.5158 24.5781 16.4222 24.5571 16.3356 24.5183L13.4583 23.2333C13.254 23.1428 13.0313 23.1015 12.8081 23.1129C12.5849 23.1242 12.3675 23.1878 12.1734 23.2985L10.6533 24.1726C10.4428 24.2938 10.267 24.4671 10.1428 24.6759C10.0186 24.8846 9.95011 25.1218 9.94399 25.3646C9.93787 25.6075 9.9943 25.8478 10.1079 26.0625C10.2214 26.2773 10.3883 26.4592 10.5924 26.5908L15.7731 29.937C15.962 30.0583 16.177 30.133 16.4004 30.1549C16.6238 30.1769 16.8492 30.1454 17.0581 30.0631L20.9057 28.5473C20.9697 28.5221 21.0395 28.5161 21.1068 28.53C21.1741 28.5438 21.2359 28.5769 21.2846 28.6253C21.3334 28.6736 21.3671 28.7351 21.3816 28.8022C21.3961 28.8694 21.3907 28.9393 21.3661 29.0034L20.1804 32.0818C20.0993 32.2961 20.0714 32.5269 20.099 32.7544C20.1267 32.9818 20.2091 33.1992 20.3392 33.3878C20.4693 33.5764 20.6432 33.7306 20.846 33.8372C21.0488 33.9439 21.2744 33.9997 21.5036 34C21.73 34.0008 21.9532 33.9464 22.1538 33.8413L23.5195 33.133C23.7712 33.0047 23.9781 32.8032 24.1131 32.555L27.7029 25.9958C27.7777 25.8587 27.8957 25.7501 28.0386 25.687L32.4955 23.7249C32.7997 23.5908 33.0743 23.3978 33.3036 23.1571C33.5329 22.9163 33.7122 22.6325 33.8312 22.3221C33.9503 22.0117 34.0067 21.6808 33.9973 21.3485C33.9878 21.0161 33.9127 20.689 33.7761 20.3858Z" fill="white"/>
</g>
<defs>
<clipPath id="clip0_57_136">
<rect width="34" height="34" fill="white"/>
</clipPath>
</defs>
</svg>
